<?xml version="1.0" encoding="utf-8"?>
<!-- Generator: Adobe Illustrator 16.0.0, SVG Export Plug-In . SVG Version: 6.00 Build 0)  -->
<!DOCTYPE svg PUBLIC "-//W3C//DTD SVG 1.1//EN" "http://www.w3.org/Graphics/SVG/1.1/DTD/svg11.dtd">
<svg version="1.1" id="Capa_1" xmlns="http://www.w3.org/2000/svg" xmlns:xlink="http://www.w3.org/1999/xlink" x="0px" y="0px"
	 width="595.279px" height="614.969px" viewBox="0 111.551 595.279 614.969" enable-background="new 0 111.551 595.279 614.969"
	 xml:space="preserve">
<g>
	<path fill="#FFFFFF" d="M524.126,343.607l58.258-58.254c2.511-2.51,3.919-5.913,3.919-9.463s-1.408-6.952-3.919-9.462
		L443.178,127.224c-5.227-5.224-13.699-5.224-18.925,0l-27.313,27.311c-31.262-15.45-70.235-10.202-96.228,15.788l-60.951,60.949
		c-8.673-0.812-17.411-0.986-26.105-0.46l-42.628-42.629c-2.511-2.51-5.915-3.918-9.463-3.918s-6.952,1.409-9.462,3.918
		L12.896,327.388c-2.51,2.51-3.919,5.913-3.919,9.462s1.409,6.952,3.921,9.462l21.011,21.012l-8.311,83.52
		c-7.734,18.546-4.079,40.757,10.988,55.824c9.954,9.956,23.031,14.934,36.108,14.934c0.761,0,1.523-0.021,2.284-0.054
		c-0.034,0.767-0.056,1.535-0.056,2.308c0,13.639,5.313,26.464,14.957,36.108c9.646,9.644,22.469,14.956,36.109,14.956
		c0.772,0,1.541-0.023,2.308-0.056c-0.613,13.828,4.343,27.859,14.878,38.395c9.646,9.645,22.469,14.956,36.11,14.956
		c0.772,0,1.541-0.022,2.308-0.055c-0.614,13.828,4.343,27.859,14.88,38.395c9.953,9.955,23.03,14.933,36.107,14.933
		c9.48,0,18.958-2.63,27.248-7.862c0.193,0.218,0.379,0.44,0.587,0.648l29.047,29.049c10.18,10.179,23.547,15.268,36.919,15.268
		c13.367,0,26.739-5.091,36.917-15.268c9.861-9.86,15.292-22.972,15.292-36.919c0-0.931-0.028-1.856-0.076-2.777
		c0.922,0.048,1.849,0.076,2.777,0.076c13.947,0,27.058-5.431,36.919-15.293c9.862-9.859,15.293-22.972,15.293-36.919
		c0-0.94-0.028-1.875-0.078-2.806c0.925,0.05,1.853,0.078,2.779,0.078c13.37,0,26.739-5.089,36.919-15.266
		c9.859-9.862,15.291-22.974,15.291-36.919c0-0.931-0.029-1.856-0.077-2.777c0.924,0.048,1.849,0.076,2.78,0.076
		c13.944,0,27.057-5.431,36.918-15.293c9.86-9.862,15.291-22.974,15.291-36.919s-5.431-27.057-15.291-36.919l-31.157-31.157
		c17.986-27.245,26.883-58.506,26.958-89.713C523.93,343.783,524.031,343.703,524.126,343.607z M433.713,155.609l120.284,120.282
		l-33.663,33.662c-6.345-30.32-21.23-59.089-44.445-82.306l-56.906-56.906L433.713,155.609z M55.511,487.744
		c-9.476-9.476-9.476-24.895,0-34.371h-0.002l20.255-20.251c4.588-4.59,10.694-7.119,17.184-7.119c6.49,0,12.596,2.527,17.186,7.119
		s7.119,10.693,7.119,17.186c0,6.491-2.527,12.595-7.121,17.185l-3.888,3.889L89.88,487.744h0.001
		C80.404,497.216,64.985,497.22,55.511,487.744z M125.99,548.156c-6.491,0-12.596-2.527-17.185-7.119
		c-4.59-4.591-7.119-10.693-7.119-17.185c0-6.486,2.523-12.584,7.107-17.174c0.004-0.004,0.008-0.008,0.014-0.014L147.4,468.07
		c4.588-4.59,10.693-7.119,17.184-7.119c6.491,0,12.596,2.527,17.186,7.119c9.474,9.474,9.476,24.889,0.007,34.364l-8.817,8.818
		l-29.785,29.781C138.585,545.629,132.48,548.156,125.99,548.156z M179.285,601.45c-6.492,0-12.596-2.527-17.186-7.119
		c-9.476-9.476-9.476-24.895,0-34.37h-0.002l38.598-38.594c0.007-0.008,0.013-0.016,0.021-0.022l16.199-16.199
		c4.588-4.59,10.693-7.119,17.184-7.119c6.489,0,12.595,2.527,17.185,7.119s7.119,10.693,7.119,17.186
		c0,6.491-2.527,12.595-7.121,17.185l-16.22,16.221l-38.593,38.593C191.881,598.923,185.775,601.45,179.285,601.45z
		 M215.394,647.627c-9.477-9.477-9.477-24.896,0-34.371l38.597-38.599c9.478-9.469,24.893-9.471,34.367,0.006
		c9.476,9.476,9.476,24.895,0,34.37l-38.592,38.596C240.29,657.101,224.869,657.104,215.394,647.627z M516.561,501.662
		c0,6.798-2.648,13.187-7.454,17.994c-4.806,4.806-11.194,7.453-17.991,7.453c-6.798,0-13.188-2.647-17.994-7.453l-7.645-7.645
		c-5.227-5.225-13.698-5.225-18.925,0c-5.225,5.225-5.225,13.698,0,18.923l7.646,7.645c4.806,4.806,7.451,11.196,7.451,17.994
		s-2.647,13.187-7.451,17.994c-9.92,9.919-26.065,9.923-35.988,0l-7.645-7.645c-5.226-5.225-13.698-5.225-18.925,0
		c-5.225,5.225-5.225,13.698,0,18.923l7.646,7.645c4.806,4.806,7.451,11.196,7.451,17.994c0,6.797-2.647,13.188-7.453,17.993
		c-9.919,9.922-26.059,9.922-35.98,0.006c-0.002-0.002-0.003-0.004-0.005-0.006c-0.002-0.004-0.006-0.006-0.01-0.01l-7.637-7.635
		c-5.223-5.224-13.697-5.224-18.923,0.002c-5.225,5.225-5.225,13.699,0.002,18.923l7.643,7.643
		c4.808,4.808,7.453,11.196,7.453,17.994s-2.647,13.188-7.453,17.994c-9.922,9.923-26.067,9.921-35.988,0l-28.768-28.768
		l27.668-27.671c19.91-19.911,19.91-52.307-0.002-72.218c-7.362-7.364-16.438-11.998-25.955-13.913
		c2.518-6.1,3.839-12.695,3.839-19.494c0-13.64-5.313-26.465-14.957-36.108c-9.646-9.645-22.469-14.957-36.109-14.957
		c-6.798,0-13.394,1.321-19.493,3.839c-1.917-9.518-6.549-18.592-13.914-25.956c-9.646-9.646-22.47-14.956-36.11-14.956
		c-7.673,0-15.087,1.681-21.821,4.867c-2.091-9.344-6.771-17.927-13.706-24.862c-9.646-9.645-22.469-14.956-36.11-14.956
		c-13.641,0-26.464,5.312-36.108,14.956l-0.777,0.778l5.104-51.308c0.397-3.992-1.017-7.951-3.855-10.787l-16.03-16.031
		l120.283-120.282l37.536,37.538c2.635,2.634,6.171,4.045,9.98,3.905c0.357-0.014,0.713-0.042,1.066-0.084
		c9.345-0.904,18.778-0.877,28.114,0.065l-8.313,85.259c-1.403,14.41,2.889,28.5,12.085,39.679
		c9.199,11.179,22.199,18.107,36.609,19.502c1.771,0.172,3.523,0.256,5.267,0.256c27.538,0,51.175-20.99,53.884-48.954l3.657-37.724
		l167.658,167.659C513.912,488.477,516.561,494.867,516.561,501.662z M477.484,414.197L347.489,284.201
		c-0.839-0.841-1.771-1.531-2.753-2.101l2.555-26.352c0.713-7.355-4.672-13.897-12.028-14.61
		c-7.361-0.721-13.899,4.67-14.612,12.028l-9.499,97.986c-1.456,15.046-14.891,26.099-29.93,24.643
		c-7.29-0.707-13.87-4.211-18.524-9.87c-4.655-5.656-6.825-12.787-6.115-20.08l10.106-103.652l52.947-52.948
		c22.167-22.169,58.236-22.169,80.403,0l56.924,56.926C501.921,291.128,509.642,360.919,477.484,414.197z"/>
</g>
</svg>
