<?xml version="1.0" encoding="utf-8"?>
<!-- Generator: Adobe Illustrator 16.0.0, SVG Export Plug-In . SVG Version: 6.00 Build 0)  -->
<!DOCTYPE svg PUBLIC "-//W3C//DTD SVG 1.1//EN" "http://www.w3.org/Graphics/SVG/1.1/DTD/svg11.dtd">
<svg version="1.1" id="Capa_1" xmlns="http://www.w3.org/2000/svg" xmlns:xlink="http://www.w3.org/1999/xlink" x="0px" y="0px"
	 width="492px" height="605.14px" viewBox="48.14 113.445 492 605.14" enable-background="new 48.14 113.445 492 605.14"
	 xml:space="preserve">
<g>
	<path fill="#FFFFFF" d="M526.396,330.869l-45.269-46.789l9.118-64.446c1.396-9.857-5.277-19.044-15.085-20.762l-64.116-11.24
		l-30.521-57.52c-4.665-8.791-15.47-12.3-24.406-7.928l-58.471,28.582l-58.487-28.582c-8.943-4.372-19.738-0.861-24.405,7.933
		l-30.508,57.514l-64.124,11.24c-9.805,1.718-16.48,10.905-15.085,20.762l9.116,64.446l-45.269,46.789
		c-6.922,7.155-6.922,18.508,0.002,25.663l45.267,46.785l-9.116,64.48c-1.393,9.854,5.28,19.041,15.085,20.759l51.319,8.996v199.58
		c0,6.395,3.312,12.334,8.752,15.695c2.962,1.833,6.328,2.758,9.702,2.758c2.819,0,5.646-0.645,8.252-1.948l99.501-49.732
		l99.486,49.732c5.718,2.859,12.514,2.554,17.954-0.81s8.752-9.304,8.752-15.698V497.554l51.321-9
		c9.806-1.721,16.479-10.905,15.086-20.763l-9.119-64.479l45.267-46.782C533.315,349.379,533.315,338.024,526.396,330.869z
		 M305.899,626.766c-5.191-2.596-11.306-2.599-16.503,0l-81.047,40.51V545.222l6.407,12.078c4.665,8.797,15.472,12.303,24.408,7.928
		l58.484-28.601l58.467,28.601c2.608,1.275,5.374,1.88,8.098,1.88c6.618,0,13.006-3.577,16.313-9.805l6.407-12.069v122.042
		L305.899,626.766z M448.328,384.134c-3.959,4.092-5.807,9.781-5.01,15.418l7.881,55.733l-55.413,9.716
		c-5.605,0.982-10.445,4.498-13.114,9.525l-26.38,49.702l-50.536-24.721c-2.559-1.25-5.334-1.878-8.109-1.878
		s-5.552,0.625-8.107,1.878l-50.549,24.721l-26.37-49.7c-2.667-5.029-7.507-8.545-13.114-9.527l-55.426-9.716l7.879-55.736
		c0.797-5.634-1.051-11.326-5.01-15.415l-39.125-40.436l39.128-40.441c3.956-4.092,5.804-9.781,5.007-15.415l-7.879-55.699
		l55.426-9.716c5.607-0.982,10.447-4.5,13.117-9.53l26.369-49.715l50.552,24.704c5.112,2.5,11.094,2.5,16.207,0l50.536-24.704
		l26.385,49.717c2.667,5.027,7.507,8.543,13.114,9.527l55.413,9.714l-7.881,55.699c-0.797,5.637,1.051,11.326,5.007,15.418
		l39.127,40.441L448.328,384.134z"/>
	<path fill="#FFFFFF" d="M297.647,217.513c-69.591,0-126.208,56.606-126.208,126.188c0,69.596,56.617,126.215,126.208,126.215
		c69.58,0,126.189-56.619,126.189-126.215C423.836,274.119,367.227,217.513,297.647,217.513z M297.647,433.007
		c-49.24,0-89.3-40.062-89.3-89.307c0-49.23,40.06-89.28,89.3-89.28c49.229,0,89.281,40.05,89.281,89.28
		C386.928,392.945,346.876,433.007,297.647,433.007z"/>
	<path fill="#FFFFFF" d="M335.265,296.884l-54.513,54.5l-20.744-20.72c-7.21-7.205-18.895-7.197-26.099,0.015
		c-7.202,7.212-7.195,18.894,0.017,26.096l33.791,33.753c3.602,3.6,8.321,5.398,13.04,5.398c4.722,0,9.446-1.801,13.049-5.403
		l67.553-67.539c7.209-7.205,7.209-18.89,0.003-26.099C354.156,289.68,342.472,289.677,335.265,296.884z"/>
</g>
</svg>
