<?xml version="1.0" encoding="utf-8"?>
<!-- Generator: Adobe Illustrator 16.0.0, SVG Export Plug-In . SVG Version: 6.00 Build 0)  -->
<!DOCTYPE svg PUBLIC "-//W3C//DTD SVG 1.1//EN" "http://www.w3.org/Graphics/SVG/1.1/DTD/svg11.dtd">
<svg version="1.1" id="Capa_1" xmlns="http://www.w3.org/2000/svg" xmlns:xlink="http://www.w3.org/1999/xlink" x="0px" y="0px"
	 width="457px" height="571.316px" viewBox="57.158 0 457 571.316" enable-background="new 57.158 0 457 571.316"
	 xml:space="preserve">
<g>
	<path fill="#FCFCFC" d="M159.858,176.916c0,26.289-21.313,47.6-47.601,47.6s-47.6-21.311-47.6-47.6s21.312-47.6,47.6-47.6
		S159.858,150.627,159.858,176.916z M411.458,176.916c0,26.289,21.313,47.6,47.602,47.6c26.288,0,47.6-21.311,47.6-47.6
		s-21.312-47.6-47.6-47.6C432.769,129.316,411.458,150.627,411.458,176.916z M146.258,394.516V281.942
		c0-20.448-16.578-37.026-37.025-37.026h-0.748c-20.448,0-37.026,16.578-37.026,37.026v119.374c0,22.535,18.266,40.801,40.8,40.801
		h61.2c7.515,0,13.601,6.086,13.601,13.6v95.201c0,11.268,9.132,20.398,20.399,20.398h6.8c11.269,0,20.4-9.133,20.4-20.398V435.316
		c0-22.535-18.265-40.801-40.8-40.801L146.258,394.516L146.258,394.516z M462.832,244.916h-0.747
		c-20.447,0-37.025,16.578-37.025,37.026v112.574h-47.602c-22.534,0-40.8,18.265-40.8,40.8v112.438
		c0,13.016,10.547,23.563,23.563,23.563h0.476c13.016,0,23.563-10.547,23.563-23.563v-92.037c0-7.514,6.086-13.6,13.601-13.6h61.2
		c22.535,0,40.8-18.268,40.8-40.801V281.942C499.858,261.494,483.279,244.916,462.832,244.916z M397.858,346.916v-20.399
		c0-3.753-3.047-6.8-6.8-6.8H180.258c-3.754,0-6.8,3.047-6.8,6.8v20.399c0,3.754,3.046,6.801,6.8,6.801h210.801
		C394.811,353.716,397.858,350.669,397.858,346.916z M267.305,0c-49.572,0-89.753,31.804-89.753,71.033
		c0,23.372,14.327,44.043,36.339,56.991c-2.156,11.805-9.011,25.71-18.592,35.292c23.406-1.748,44.004-8.459,57.494-22.263
		c4.739,0.612,9.567,1.013,14.519,1.013c49.572,0,89.753-31.804,89.753-71.033S316.87,0,267.305,0z M225.226,85.055
		c-7.745,0-14.021-6.276-14.021-14.021c0-7.745,6.276-14.022,14.021-14.022s14.021,6.277,14.021,14.022
		C239.247,78.779,232.971,85.055,225.226,85.055z M267.305,85.055c-7.746,0-14.022-6.276-14.022-14.021
		c0-7.745,6.276-14.022,14.022-14.022c7.744,0,14.021,6.277,14.021,14.022C281.326,78.779,275.05,85.055,267.305,85.055z
		 M309.377,85.055c-7.746,0-14.021-6.276-14.021-14.021c0-7.745,6.275-14.022,14.021-14.022c7.744,0,14.021,6.277,14.021,14.022
		C323.397,78.779,317.122,85.055,309.377,85.055z"/>
</g>
</svg>
