<?xml version="1.0" encoding="utf-8"?>
<!-- Generator: Adobe Illustrator 16.0.0, SVG Export Plug-In . SVG Version: 6.00 Build 0)  -->
<!DOCTYPE svg PUBLIC "-//W3C//DTD SVG 1.1//EN" "http://www.w3.org/Graphics/SVG/1.1/DTD/svg11.dtd">
<svg version="1.1" id="Capa_1" xmlns="http://www.w3.org/2000/svg" xmlns:xlink="http://www.w3.org/1999/xlink" x="0px" y="0px"
	 width="538.473px" height="608.969px" viewBox="27.244 117.551 538.473 608.969"
	 enable-background="new 27.244 117.551 538.473 608.969" xml:space="preserve">
<g>
	<path fill="#FFFFFF" d="M393.752,239.295c-50.33-33.24-112.814-37.947-171.424-12.921c-36.751,15.692-65.835,44.081-81.899,79.94
		c-16.737,37.362-21.515,76.85-13.819,114.195c7.199,34.94,24.754,66.468,50.762,91.177c24.204,22.994,38.088,55.902,38.088,90.286
		v35.359c0,9.759,4.374,18.854,12.001,24.951l26.048,20.814c1.087,0.867,1.71,2.161,1.71,3.549
		c0,17.609,14.327,31.937,31.937,31.937h20.972c17.608,0,31.936-14.327,31.936-31.937c0-1.388,0.621-2.682,1.705-3.549
		l26.054-20.817c7.624-6.095,11.998-15.189,11.998-24.948v-35.369c0-34.132,14.126-67.271,38.759-90.92
		c34.621-33.24,53.687-77.964,53.687-125.936C472.264,326.271,442.912,271.758,393.752,239.295z M312.668,686.646
		c0,2.507-2.038,4.543-4.542,4.543h-20.972c-2.505,0-4.543-2.038-4.543-4.543c0-9.759-4.374-18.853-12.001-24.95l-26.048-20.814
		c-1.087-0.867-1.71-2.161-1.71-3.55v-22.095h109.572v22.095c0,1.389-0.623,2.683-1.707,3.55l-26.054,20.816
		C317.04,667.794,312.668,676.886,312.668,686.646z M353.116,587.847H242.177c-3.36-36.659-19.666-71.061-45.937-96.021
		c-47.118-44.763-58.925-111.554-30.813-174.313c13.237-29.55,37.266-52.972,67.656-65.947
		c21.354-9.117,43.261-13.637,64.671-13.637c28.722,0,56.544,8.136,80.901,24.223c41.462,27.379,66.214,73.343,66.214,122.957
		c0,40.444-16.075,78.151-45.265,106.176C373.036,516.795,356.536,551.384,353.116,587.847z"/>
	<path fill="#FFFFFF" d="M297.639,190.266c7.563,0,13.696-6.134,13.696-13.697v-39.567c0-7.563-6.134-13.697-13.696-13.697
		s-13.696,6.134-13.696,13.697v39.567C283.943,184.134,290.076,190.266,297.639,190.266z"/>
	<path fill="#FFFFFF" d="M463.393,199.985l-27.978,27.98c-5.349,5.349-5.349,14.021,0,19.37c2.676,2.673,6.18,4.011,9.686,4.011
		c3.507,0,7.011-1.338,9.687-4.011l27.978-27.98c5.349-5.348,5.349-14.021,0-19.369
		C477.413,194.637,468.741,194.637,463.393,199.985z"/>
	<path fill="#FFFFFF" d="M545.748,371.415h-39.567c-7.563,0-13.696,6.134-13.696,13.697s6.134,13.696,13.696,13.696h39.567
		c7.563,0,13.697-6.133,13.697-13.696S553.311,371.415,545.748,371.415z"/>
	<path fill="#FFFFFF" d="M454.784,522.886c-5.349-5.349-14.022-5.349-19.369,0c-5.349,5.349-5.349,14.021,0,19.369l27.978,27.978
		c2.673,2.673,6.18,4.011,9.686,4.011c3.507,0,7.011-1.338,9.687-4.011c5.349-5.349,5.349-14.021,0-19.369L454.784,522.886
		L454.784,522.886z"/>
	<path fill="#FFFFFF" d="M140.493,522.886l-27.978,27.978c-5.349,5.349-5.349,14.021,0,19.369c2.673,2.673,6.179,4.011,9.686,4.011
		c3.506,0,7.01-1.338,9.686-4.011l27.978-27.978c5.349-5.349,5.349-14.021,0-19.369S145.842,517.537,140.493,522.886z"/>
	<path fill="#FFFFFF" d="M89.099,371.415H49.531c-7.563,0-13.696,6.134-13.696,13.697s6.134,13.696,13.696,13.696h39.567
		c7.563,0,13.696-6.133,13.696-13.696S96.664,371.415,89.099,371.415z"/>
	<path fill="#FFFFFF" d="M140.493,247.335c2.675,2.673,6.179,4.011,9.686,4.011c3.504,0,7.011-1.338,9.686-4.011
		c5.349-5.349,5.349-14.021,0-19.37l-27.979-27.98c-5.349-5.349-14.021-5.349-19.369,0c-5.349,5.349-5.349,14.021,0,19.369
		L140.493,247.335L140.493,247.335z"/>
	<path fill="#FFFFFF" d="M296.244,293.164c-12.608,0.771-22.202,11.615-21.434,24.223l9.132,149.405
		c0.408,6.828,5.859,12.432,12.858,12.859c7.565,0.463,14.071-5.297,14.534-12.859l9.131-149.405c0.048-0.877,0.056-1.895,0-2.79
		C319.698,301.991,308.852,292.395,296.244,293.164L296.244,293.164z"/>
	<circle fill="#FFFFFF" cx="297.639" cy="523.217" r="15.979"/>
</g>
</svg>
