<?xml version="1.0" encoding="utf-8"?>
<!-- Generator: Adobe Illustrator 16.0.0, SVG Export Plug-In . SVG Version: 6.00 Build 0)  -->
<!DOCTYPE svg PUBLIC "-//W3C//DTD SVG 1.1//EN" "http://www.w3.org/Graphics/SVG/1.1/DTD/svg11.dtd">
<svg version="1.1" id="Capa_1" xmlns="http://www.w3.org/2000/svg" xmlns:xlink="http://www.w3.org/1999/xlink" x="0px" y="0px"
	 width="595.279px" height="565.471px" viewBox="0 132.551 595.279 565.471" enable-background="new 0 132.551 595.279 565.471"
	 xml:space="preserve">
<g>
	<g>
		<path fill="#FFFFFF" d="M566.905,518.08c-11.139-0.838-34.254,12.097-40.48,15.45c-22.517,11.737-53.776,30.182-74.256,44.913
			c-1.438,0.958-3.354,2.275-4.791,3.233c-9.222,6.228-19.043,10.3-29.821,12.695c-59.645,13.175-146.715,14.611-146.715,14.611
			l-5.03,0.24c-3.833,0.239-7.186-2.516-7.785-6.349c-0.599-4.191,2.395-8.144,6.707-8.503l129.348-12.814
			c14.252-1.558,25.63-15.451,24.073-31.021s-15.33-26.947-29.583-25.271l-115.095-1.438c-7.786-0.12-20.36-2.155-27.906-4.431
			c-74.136-22.516-115.934-1.438-138.21,8.384c-4.911-8.504-14.373-14.013-24.912-13.295l-49.583,3.474
			c-16.528,1.198-28.983,15.45-27.786,31.978l7.905,114.257c1.198,16.528,15.45,28.984,31.978,27.787l49.583-3.474
			c10.419-0.719,19.042-7.426,22.756-16.527l217.855,9.701c24.312,2.634,47.068-0.36,68.386-11.977l6.229-3.354L574.57,566.347
			c8.145-4.91,13.893-13.413,14.133-22.876C589.062,531.974,582.594,519.278,566.905,518.08z M63.047,664.915
			c-9.342,0-16.887-7.546-16.887-16.888s7.545-16.887,16.887-16.887c9.341,0,16.886,7.545,16.886,16.887
			C79.933,657.249,72.388,664.915,63.047,664.915z"/>
		<path fill="#FFFFFF" d="M441.868,536.285c1.198,3.713,2.155,7.545,2.515,11.618c0.36,3.233,0.36,6.467,0.119,9.58
			c1.677-1.197,3.474-2.515,5.15-3.712c16.768-12.217,51.261-31.618,70.663-41.8c5.869-3.112,12.096-6.107,18.684-8.623
			c-8.504-5.868-17.605-6.107-26.948-2.395c-18.563,7.545-52.577,24.672-69.943,34.492
			C442.108,535.807,441.988,536.046,441.868,536.285z"/>
		<path fill="#FFFFFF" d="M467.618,487.54c-11.379,4.671-37.009,13.294-48.387,19.522c4.91,3.113,9.223,6.946,12.936,11.497
			c0.719-0.479,1.438-1.077,2.275-1.558l8.264-4.789c12.217-6.947,38.086-16.409,51.5-22.637
			C485.703,483.947,476.72,483.708,467.618,487.54z"/>
		<path fill="#FFFFFF" d="M181.736,305.974c1.677,2.396,1.556,4.072,0,6.467c-7.307,11.019-14.492,22.037-21.439,33.176
			c-6.707,10.779-2.515,23.234,9.341,27.786c12.337,4.791,24.553,9.461,36.889,14.013c2.635,0.958,3.473,2.276,3.593,4.911
			c0.6,12.456,1.916,24.912,1.796,37.368c-0.12,12.694,11.019,23.833,26.11,19.042c11.977-3.832,24.313-6.587,36.409-10.061
			c2.396-0.718,3.833-0.239,5.51,1.797c8.024,10.061,16.168,20.121,24.432,30.062c8.982,10.898,21.917,10.898,30.78,0
			c8.144-10.061,16.168-20.001,24.192-30.182c1.557-1.916,2.875-2.634,5.389-1.916c12.576,3.474,25.151,6.827,37.848,10.181
			c12.934,3.473,23.833-4.432,24.552-17.726c0.719-13.055,1.438-25.99,1.916-39.044c0.119-2.994,1.438-4.192,3.953-5.15
			c11.977-4.431,23.833-9.102,35.69-13.773c12.814-5.03,16.887-17.486,9.461-28.983c-7.066-10.779-14.013-21.678-21.198-32.337
			c-1.677-2.395-1.558-4.072,0-6.467c6.946-10.54,13.772-21.079,20.6-31.738c8.024-12.456,3.832-24.911-10.061-29.941
			c-11.856-4.312-23.594-8.983-35.331-13.294c-2.515-0.958-3.474-2.275-3.593-5.03c-0.599-12.935-1.318-25.75-2.036-38.564
			c-0.72-13.653-11.498-21.438-24.673-17.965c-12.455,3.354-24.91,6.587-37.247,10.18c-2.874,0.838-4.312,0.12-6.107-2.037
			c-7.905-9.94-16.05-19.881-24.074-29.702c-8.742-10.898-21.917-10.898-30.779,0c-7.904,9.821-15.929,19.522-23.594,29.583
			c-2.156,2.754-4.072,3.234-7.187,2.276c-12.096-3.473-24.313-6.587-33.055-8.983c-17.007-4.072-26.948,2.875-27.906,16.768
			c-0.958,13.054-1.437,25.99-1.916,39.044c-0.12,2.754-1.077,3.953-3.473,4.911c-12.216,4.551-24.432,9.222-36.528,14.012
			c-12.576,5.03-16.528,17.367-9.103,28.744C167.483,284.416,174.549,295.195,181.736,305.974z M273.357,360.947
			c1.197-4.312,2.395-8.624,3.713-12.935c1.557-5.03,2.875-5.629,7.425-3.233c7.785,4.072,16.168,6.348,24.792,7.425
			c5.629,0.719,11.138,0.12,16.288-2.156c9.701-4.192,11.259-15.45,2.994-22.157c-2.755-2.276-5.988-3.953-9.222-5.39
			c-8.504-3.712-17.367-6.587-25.39-11.377c-13.055-7.785-21.319-18.444-20.241-34.374c1.077-17.965,11.257-29.103,27.666-35.091
			c6.826-2.515,6.826-2.396,6.826-9.462c0-2.395,0-4.791,0-7.186c0.12-5.389,1.078-6.228,6.348-6.347c1.677,0,3.234,0,4.911,0
			c11.257,0,11.257,0,11.377,11.258c0,8.024,0,8.024,8.024,9.342c6.108,0.958,11.977,2.754,17.605,5.27
			c3.114,1.318,4.313,3.593,3.354,6.827c-1.437,4.911-2.754,9.821-4.311,14.611c-1.438,4.552-2.995,5.27-7.306,3.114
			c-8.863-4.312-18.085-6.108-27.906-5.509c-2.515,0.12-5.03,0.479-7.425,1.557c-8.384,3.713-9.822,12.935-2.636,18.684
			c3.593,2.875,7.785,5.03,12.097,6.827c7.426,3.114,14.971,6.108,22.037,9.94c22.636,12.456,28.624,40.841,12.815,60.243
			c-5.75,6.947-13.175,11.737-21.918,14.133c-3.832,1.078-5.509,2.994-5.39,6.946c0.12,3.833,0,7.785,0,11.618
			c0,3.474-1.796,5.39-5.149,5.39c-4.192,0.12-8.384,0.12-12.576,0c-3.713-0.12-5.39-2.157-5.39-5.75c0-2.874,0-5.629-0.119-8.503
			c-0.12-6.228-0.239-6.587-6.348-7.426c-7.665-1.198-15.331-2.994-22.396-6.348C272.279,368.133,271.8,366.696,273.357,360.947z"/>
	</g>
</g>
</svg>
