<?xml version="1.0" encoding="utf-8"?>
<!-- Generator: Adobe Illustrator 16.0.0, SVG Export Plug-In . SVG Version: 6.00 Build 0)  -->
<!DOCTYPE svg PUBLIC "-//W3C//DTD SVG 1.1//EN" "http://www.w3.org/Graphics/SVG/1.1/DTD/svg11.dtd">
<svg version="1.1" id="Capa_1" xmlns="http://www.w3.org/2000/svg" xmlns:xlink="http://www.w3.org/1999/xlink" x="0px" y="0px"
	 width="595.279px" height="589.471px" viewBox="0 126.551 595.279 589.471" enable-background="new 0 126.551 595.279 589.471"
	 xml:space="preserve">
<g>
	<g>
		<path fill="#FF8702" d="M543.775,293.75c-8.139-63.249-70.108-111.266-146.495-111.266c-15.813,0-31.275,2.093-46.273,6.395
			c-27.438-32.206-71.387-51.622-119.289-51.622c-81.386,0-147.541,56.156-147.541,125.334c0,3.255,0.116,6.511,0.466,9.882
			c-43.6,22.439-70.807,62.784-70.807,107.081c0,69.062,66.155,125.334,147.542,125.334c13.138,0,23.718-10.58,23.718-23.718
			s-10.58-23.719-23.718-23.719c-55.11,0-99.989-34.879-99.989-77.897c0-30.113,22.904-57.784,58.249-70.573
			c11.743-4.302,18.254-16.975,14.65-29.066c-1.744-6.046-2.675-11.627-2.675-17.208c0-42.902,44.879-77.898,99.988-77.898
			c38.136,0,73.597,17.556,90.223,44.646c6.046,9.882,18.486,13.952,29.183,9.534c14.533-5.93,29.996-8.952,46.041-8.952
			c53.947,0,98.826,34.182,99.872,76.27c0.232,7.092,3.604,13.835,9.186,18.137c19.184,14.882,29.764,34.415,29.764,55.11
			c0,42.902-44.879,77.897-99.988,77.897c-18.138,0-36.043-3.953-51.738-11.394c-11.859-5.581-26.044-0.581-31.625,11.277
			c-5.58,11.859-0.581,26.044,11.278,31.625c21.975,10.464,46.972,16.044,72.085,16.044c81.386,0,147.541-56.156,147.541-125.334
			C583.654,347.582,569.237,316.887,543.775,293.75L543.775,293.75z"/>
		<path fill="#FF8702" d="M279.037,320.375c-13.138,0-23.718,10.581-23.718,23.718v192.653l-28.369-27.672
			c-9.417-9.185-24.416-8.952-33.601,0.465c-9.185,9.418-8.952,24.416,0.465,33.602l68.713,66.969
			c11.511,11.51,21.626,11.627,33.136,0l68.713-66.969c9.418-9.186,9.534-24.184,0.465-33.602
			c-9.185-9.417-24.183-9.533-33.601-0.465l-28.368,27.672V344.093C302.756,330.956,292.176,320.375,279.037,320.375
			L279.037,320.375z"/>
		<path fill="#FF8702" d="M472.619,550.465c-13.138,0-23.718,10.58-23.718,23.719v85.339H110.104v-85.339
			c0-13.139-10.58-23.719-23.719-23.719c-13.138,0-23.718,10.58-23.718,23.719V683.24c0,13.139,10.58,23.719,23.718,23.719h386.234
			c13.139,0,23.719-10.58,23.719-23.719V574.184C496.338,561.045,485.642,550.465,472.619,550.465L472.619,550.465z"/>
	</g>
</g>
</svg>
